<?xml version="1.0" encoding="UTF-8" standalone="no"?>
<svg
   xmlns:dc="http://purl.org/dc/elements/1.1/"
   xmlns:cc="http://creativecommons.org/ns#"
   xmlns:rdf="http://www.w3.org/1999/02/22-rdf-syntax-ns#"
   xmlns:svg="http://www.w3.org/2000/svg"
   xmlns="http://www.w3.org/2000/svg"
   id="svg4869"
   version="1.0"
   height="600"
   width="900">
  <metadata
     id="metadata4879">
    <rdf:RDF>
      <cc:Work
         rdf:about="">
        <dc:format>image/svg+xml</dc:format>
        <dc:type
           rdf:resource="http://purl.org/dc/dcmitype/StillImage" />
        <dc:title></dc:title>
      </cc:Work>
    </rdf:RDF>
  </metadata>
  <defs
     id="defs4877" />
  <path
     fill="#d9171a"
     id="path4873"
     d="m 586.2,335.76 32.04,-9.6 52.68,31.92 -33.36,8.64 49.44,29.76 33,-8.88 52.08,31.56 -33.72,8.16 49.56,29.88 33.96,-8.28 52.2,31.68 -32.04,9.24 57.96,34.8 0,75.36 -41.28,0 -71.04,-43.08 9.71999,34.2 -56.03999,-33.36 -9.24,-34.2 -48.72001,-29.16 7.56,33.12 -51.35999,-30.6 -9,-34.2 -49.32,-29.52 8.27999,33.72 L 536.28,435 527.64,401.04 449.88,354.48 372,401.04 363.36,435 l -53.28,31.92 8.28,-33.72 -49.32,29.52 -9,34.2 -51.36,30.6 7.56,-33.12 -48.72001,29.16 -9.23999,34.2 -56.04,33.36 9.72,-34.2 L 41.279999,600 0,600 0,524.64 57.84,489.84 25.8,480.6 77.999999,448.92 111.96,457.2 161.52,427.32 127.8,419.16 180,387.6 l 33,8.88 49.44,-29.76 -33.36,-8.64 52.68,-31.92 32.04,9.6 52.32,-31.44 -41.88,-25.08 -32.04001,9.6 -52.79999,-31.8 33.24,-8.76 -49.56,-29.64 -33,8.88 -52.2,-31.56 33.72,-8.28 L 122.04,157.92 88.2,166.44 35.88,134.88 67.92,125.64 0,81.12 0,0 l 28.32,0 94.8,57 -9.6,-34.2 55.92,33.48 9.24,34.2 48.6,29.28 -7.44,-33.12 51.24,30.6 8.88,34.2 49.32,29.64 -8.28,-33.72 53.16,32.04 8.64,33.96 67.19999,40.44 L 517.2,213.36 525.83999,179.4 579,147.36 l -8.28,33.72 49.32,-29.64 8.88,-34.2 51.24,-30.6 -7.44,33.12 48.59999,-29.28 9.24001,-34.2 55.92,-33.48 -9.6,34.2 94.8,-57 28.32,0 0,81.12 -67.92001,44.4 32.04001,9.24 -52.32001,31.56 -33.95999,-8.28 -49.56,29.76 33.71999,8.28 -52.19999,31.56 -33.00001,-8.88 -49.56,29.64 33.24001,8.76 -52.8,31.8 -32.04001,-9.6 -41.87999,25.08 52.44,31.32 z" />
</svg>
